<?xml version="1.0" encoding="utf-8"?>
<!-- Generator: Adobe Illustrator 21.0.0, SVG Export Plug-In . SVG Version: 6.00 Build 0)  -->
<svg version="1.1" id="图层_1" xmlns:vectornator="http://vectornator.io"
	 xmlns="http://www.w3.org/2000/svg" xmlns:xlink="http://www.w3.org/1999/xlink" x="0px" y="0px" viewBox="0 0 1249 1290"
	 style="enable-background:new 0 0 1249 1290;" xml:space="preserve">
<style type="text/css">
	.st0{opacity:0.4169;}
	.st1{display:none;fill:#FFFFFF;fill-opacity:0;stroke:#000000;stroke-width:20;stroke-linecap:square;stroke-linejoin:round;}
	.st2{display:none;fill:#FFFFFF;fill-opacity:0;stroke:#000000;stroke-width:20;}
	.st3{display:none;fill-opacity:0;}
	.st4{fill:#C10D0D;fill-opacity:0;stroke:#C10D0D;stroke-width:20;stroke-linecap:round;}
	.st5{fill:#C10D0D;stroke:#C10D0D;stroke-width:5;stroke-linecap:round;stroke-linejoin:round;}
	.st6{fill:#C10D0D;stroke:#C10D0D;stroke-width:30;stroke-linecap:round;}
	.st7{fill:#C10D0D;stroke:#C10D0D;stroke-width:20;stroke-linecap:round;stroke-linejoin:round;}
	.st8{display:none;fill:none;stroke:#2599D8;stroke-width:30;stroke-linecap:round;stroke-linejoin:round;}
	.st9{fill:none;}
	.st10{enable-background:new    ;}
	.st11{fill:#C10D0D;}
</style>
<g id="レイヤー_1" vectornator:layerName="闁靛浜為柕澶堝€戦崗1" class="st0">
	<g transform="matrix(4.79495 0 0 4.85153 -1632.11 -2762.25)">
		
			<image style="display:none;overflow:visible;enable-background:new    ;" width="1249" height="1290" id="Image" xlink:href="46E1E6C3.jpeg"  transform="matrix(4.795 0 0 4.8515 -1632.11 -2762.25)">
		</image>
	</g>
</g>
<g id="レイヤー_2" vectornator:layerName="闁靛浜為柕澶堝€戦崗2">
	<path class="st1" d="M783.2,532.7l-130.3-48.3l9,356l106.7-43.8"/>
	<path class="st1" d="M658.4,659.6l120.4-4.3"/>
	<path class="st1" d="M831.3,553.7L814.9,768c0,0,143.2,10.9,159.1-117.9C987,546,831.3,553.7,831.3,553.7z"/>
	<path class="st1" d="M874.8,949.9l25.6-250.6c0,0,5.8-83.1,85.7-77.1c66.7,5,80.7,71.1,49.4,120.5c-31.3,49.3-145.3,58.4-135.5-41"
		/>
	<path class="st2" d="M323.6,307.3c92.4,46.2,138.5,108.3,138.5,108.3L451,492l108.3-41.4v57.3"/>
	<path class="st2" d="M245.6,648.1c122.9-6.3,159.3-44.6,159.3-44.6l35,63.7l66.9-43l37.2,5.4"/>
	<path class="st2" d="M364.6,898C412.7,882.4,496,766.6,496,766.6l48.1,39l36.4-45.5"/>
</g>
<g id="レイヤー_3" vectornator:layerName="闁靛浜為柕澶堝€戦崗3">
	<path class="st2" d="M794.1,329.8H584.5L460.1,515.4l224.6-0.9l-116.1,221c0,0,135.7,40.2,208.6-92
		c49.8-90.3-27.6-130.8-90.8-129.1"/>
	<path class="st2" d="M532,416.3l214.9,1.5"/>
	<path class="st2" d="M454.2,966.9c0,0-0.5-28.7-2.1-206.2c0,0-7.4-62.1,55-105.3c110.8-76.9,236.5,78.2,135.9,168.1
		c-100.1,89.4-190.9-2.7-191-53.5"/>
	<path class="st3" d="M600.6,674.7l-54.7,82c0,0,63.8-0.9,96.6-14.6c32.8-13.7,7.3-34.6-5.5-51.9
		C624.3,672.9,600.6,674.7,600.6,674.7z"/>
</g>
<g id="レイヤー_4" vectornator:layerName="闁靛浜為柕澶堝€戦崗4">
	<path class="st4" d="M504,573.3H373.9v216.4l130.6-0.7"/>
	<path class="st5" d="M415.7,658.2H482c10.8,0,19.5,8.7,19.5,19.5v9.7c0,10.8-8.7,19.5-19.5,19.5h-66.3c-10.8,0-19.5-8.7-19.5-19.5
		v-9.7C396.2,666.9,404.9,658.2,415.7,658.2z"/>
	<path class="st6" d="M562.9,578.8l-0.7,205.9"/>
	<path class="st7" d="M603.8,575.4v214.2c0,0,120.9-13.1,121.3-108.5C725.5,585.7,603.8,575.4,603.8,575.4z"/>
	<path class="st6" d="M776.3,579.1l-0.8,205.2"/>
	<path class="st7" d="M813.8,637.8c0-35,28.6-63.5,64-63.5s64,28.4,64,63.5c0,35-28.6,63.5-64,63.5S813.8,672.9,813.8,637.8z"/>
</g>
<g id="レイヤー_5" vectornator:layerName="闁靛浜為柕澶堝€戦崗5">
	<path class="st8" d="M530.2,564.2l-1.9,232"/>
	<path class="st8" d="M747.5,563.7l-1.9,232"/>
</g>
<rect x="359" y="821.3" class="st9" width="665" height="67"/>
<g class="st10">
	<path class="st11" d="M363.8,830h20.5v2.1h-18.1v14.3h16.6v2.1h-16.6v15.2h19.1v2.1h-21.5V830z"/>
	<path class="st11" d="M395,840.8l0.4,4.1h0.1c1-1.5,2.3-2.6,3.7-3.5c1.4-0.8,3-1.2,4.7-1.2c2.6,0,4.7,0.8,6,2.3
		c1.4,1.6,2,3.8,2,6.8v16.5h-2.1v-16.3c0-2.5-0.5-4.4-1.5-5.6s-2.5-1.9-4.7-1.9c-1.5,0-3,0.5-4.4,1.4c-1.4,0.9-2.7,2.2-3.7,3.8v18.5
		h-2.1v-25.1H395z"/>
	<path class="st11" d="M421.1,877.7v-2.4c1.3,0.6,2.5,1.1,3.5,1.4c1.1,0.3,2.3,0.4,3.8,0.4c6.3,0,9.5-3.4,9.5-10.1v-3.8h-0.1
		c-0.8,1-1.9,1.8-3.3,2.4c-1.4,0.6-2.8,1-4.4,1c-3.4,0-6-1.2-7.9-3.5c-1.9-2.3-2.9-5.5-2.9-9.6c0-4.2,1-7.4,3-9.8
		c2-2.4,4.8-3.6,8.4-3.6c1.7,0,3.2,0.4,4.4,1.1c1.2,0.7,2.2,1.5,2.9,2.3h0.1l0.3-2.8h1.7v26.2c0,2.8-0.4,5.1-1.3,6.8
		c-0.9,1.7-2.2,3-3.9,3.9c-1.7,0.9-3.9,1.3-6.5,1.3c-1.5,0-2.9-0.1-4.2-0.4C422.8,878.4,421.8,878.1,421.1,877.7z M437.9,861v-15
		c-0.7-1-1.7-1.9-3.1-2.7c-1.4-0.8-2.8-1.2-4.2-1.2c-2.8,0-5.1,1-6.7,3c-1.6,2-2.4,4.8-2.4,8.3c0,3.6,0.8,6.3,2.3,8.2
		c1.5,1.9,3.7,2.9,6.6,2.9c1.3,0,2.6-0.3,4-1C435.7,863,436.9,862.1,437.9,861z"/>
	<path class="st11" d="M449.5,832.4h2.5v2.6h-2.5V832.4z M449.6,840.8h2.1v25.1h-2.1V840.8z"/>
	<path class="st11" d="M463.1,840.8l0.4,4.1h0.1c1-1.5,2.3-2.6,3.7-3.5c1.4-0.8,3-1.2,4.7-1.2c2.6,0,4.7,0.8,6,2.3
		c1.4,1.6,2,3.8,2,6.8v16.5h-2.1v-16.3c0-2.5-0.5-4.4-1.5-5.6s-2.5-1.9-4.7-1.9c-1.5,0-3,0.5-4.4,1.4c-1.4,0.9-2.7,2.2-3.7,3.8v18.5
		h-2.1v-25.1H463.1z"/>
	<path class="st11" d="M487.4,853.1c0-2.6,0.5-4.9,1.4-6.8s2.2-3.5,3.8-4.5c1.6-1,3.4-1.6,5.4-1.6c2.9,0,5.3,1,7,2.9
		c1.8,1.9,2.6,5,2.6,9.1v0.9h-17.9c0,4,0.9,6.9,2.6,8.7c1.7,1.9,4.2,2.8,7.3,2.8c2.7,0,5-0.5,7.1-1.4v2c-1.7,0.9-4,1.4-7.1,1.4
		c-3.9,0-6.9-1.2-9-3.5C488.4,860.7,487.4,857.4,487.4,853.1z M497.9,842.1c-2.2,0-4.1,0.8-5.6,2.5c-1.5,1.7-2.4,3.9-2.6,6.5h15.7
		c-0.1-3-0.7-5.2-2-6.8C502.1,842.9,500.3,842.1,497.9,842.1z"/>
	<path class="st11" d="M514,853.1c0-2.6,0.5-4.9,1.4-6.8s2.2-3.5,3.8-4.5c1.6-1,3.4-1.6,5.4-1.6c2.9,0,5.3,1,7,2.9
		c1.8,1.9,2.6,5,2.6,9.1v0.9h-17.9c0,4,0.9,6.9,2.6,8.7c1.7,1.9,4.2,2.8,7.3,2.8c2.7,0,5-0.5,7.1-1.4v2c-1.7,0.9-4,1.4-7.1,1.4
		c-3.9,0-6.9-1.2-9-3.5C515,860.7,514,857.4,514,853.1z M524.5,842.1c-2.2,0-4.1,0.8-5.6,2.5c-1.5,1.7-2.4,3.9-2.6,6.5h15.7
		c-0.1-3-0.7-5.2-2-6.8C528.7,842.9,526.9,842.1,524.5,842.1z"/>
	<path class="st11" d="M544.2,840.8l0.4,4.5h0.1c1-1.5,2.4-2.7,4.2-3.7c1.8-1,3.7-1.5,5.6-1.5h0.7v2.1h-0.7c-2,0-3.9,0.5-5.7,1.6
		c-1.8,1.1-3.2,2.5-4.1,4.2v17.8h-2.1v-25.1H544.2z"/>
	<path class="st11" d="M560.3,832.4h2.5v2.6h-2.5V832.4z M560.4,840.8h2.1v25.1h-2.1V840.8z"/>
	<path class="st11" d="M573.9,840.8l0.4,4.1h0.1c1-1.5,2.3-2.6,3.7-3.5c1.4-0.8,3-1.2,4.7-1.2c2.6,0,4.7,0.8,6,2.3
		c1.4,1.6,2,3.8,2,6.8v16.5h-2.1v-16.3c0-2.5-0.5-4.4-1.5-5.6s-2.5-1.9-4.7-1.9c-1.5,0-3,0.5-4.4,1.4c-1.4,0.9-2.7,2.2-3.7,3.8v18.5
		h-2.1v-25.1H573.9z"/>
	<path class="st11" d="M600,877.7v-2.4c1.3,0.6,2.5,1.1,3.5,1.4c1.1,0.3,2.3,0.4,3.8,0.4c6.3,0,9.5-3.4,9.5-10.1v-3.8h-0.1
		c-0.8,1-1.9,1.8-3.3,2.4c-1.4,0.6-2.8,1-4.4,1c-3.4,0-6-1.2-7.9-3.5c-1.9-2.3-2.9-5.5-2.9-9.6c0-4.2,1-7.4,3-9.8
		c2-2.4,4.8-3.6,8.4-3.6c1.7,0,3.2,0.4,4.4,1.1c1.2,0.7,2.2,1.5,2.9,2.3h0.1l0.3-2.8h1.7v26.2c0,2.8-0.4,5.1-1.3,6.8
		c-0.9,1.7-2.2,3-3.9,3.9c-1.7,0.9-3.9,1.3-6.5,1.3c-1.5,0-2.9-0.1-4.2-0.4C601.7,878.4,600.7,878.1,600,877.7z M616.8,861v-15
		c-0.7-1-1.7-1.9-3.1-2.7c-1.4-0.8-2.8-1.2-4.2-1.2c-2.8,0-5.1,1-6.7,3c-1.6,2-2.4,4.8-2.4,8.3c0,3.6,0.8,6.3,2.3,8.2
		c1.5,1.9,3.7,2.9,6.6,2.9c1.3,0,2.6-0.3,4-1C614.6,863,615.8,862.1,616.8,861z"/>
	<path class="st11" d="M646.3,830c3.2,0,5.6,0.2,7.4,0.5c4.4,1.1,7.7,3.2,9.9,6.2c2.1,3,3.2,6.7,3.2,11.1c0,4.6-1.2,8.5-3.5,11.6
		s-5.5,5.2-9.6,6c-1.8,0.4-4,0.5-6.6,0.5h-7.8V830H646.3z M664.2,847.8c0-4-0.9-7.2-2.7-9.8c-1.8-2.6-4.4-4.3-7.7-5.2
		c-1-0.3-2.2-0.4-3.5-0.5c-1.3-0.1-3-0.1-5-0.1h-3.7v31.6h3.9c2,0,3.5,0,4.6-0.1s2.2-0.2,3.2-0.4c3.4-0.8,6.1-2.5,8-5.2
		C663.2,855.2,664.2,851.8,664.2,847.8z"/>
	<path class="st11" d="M673.3,853.1c0-2.6,0.5-4.9,1.4-6.8s2.2-3.5,3.8-4.5c1.6-1,3.4-1.6,5.4-1.6c2.9,0,5.3,1,7,2.9
		c1.8,1.9,2.6,5,2.6,9.1v0.9h-17.9c0,4,0.9,6.9,2.6,8.7c1.7,1.9,4.2,2.8,7.3,2.8c2.7,0,5-0.5,7.1-1.4v2c-1.7,0.9-4,1.4-7.1,1.4
		c-3.9,0-6.9-1.2-9-3.5C674.4,860.7,673.3,857.4,673.3,853.1z M683.8,842.1c-2.2,0-4.1,0.8-5.6,2.5c-1.5,1.7-2.4,3.9-2.6,6.5h15.7
		c-0.1-3-0.7-5.2-2-6.8C688.1,842.9,686.3,842.1,683.8,842.1z"/>
	<path class="st11" d="M699.8,865.3v-2.2c1.9,1.1,4.2,1.6,6.8,1.6c2.1,0,3.8-0.5,5.1-1.5c1.2-1,1.9-2.4,1.9-4.2
		c0-1.4-0.4-2.4-1.2-3.1c-0.8-0.7-2.2-1.3-4.1-1.8c-1.8-0.4-3.2-0.9-4.3-1.3c-1.1-0.5-2.1-1.1-2.8-2s-1.1-2.1-1.1-3.5
		c0-2.3,0.8-4.1,2.4-5.2c1.6-1.1,3.6-1.7,6-1.7c2.2,0,4.3,0.5,6.3,1.4v2.1c-1-0.5-2-0.9-3-1.2c-1-0.3-2.1-0.4-3.4-0.4
		c-2,0-3.6,0.4-4.6,1.3c-1,0.8-1.6,2-1.6,3.6c0,1.1,0.2,1.9,0.7,2.5c0.5,0.6,1.2,1.1,2,1.4s2.2,0.7,3.9,1.1c2.4,0.6,4.2,1.4,5.3,2.5
		c1.1,1,1.7,2.5,1.7,4.4c0,2.4-0.8,4.2-2.4,5.7s-3.8,2.1-6.6,2.1C703.6,866.6,701.4,866.1,699.8,865.3z"/>
	<path class="st11" d="M722.9,832.4h2.5v2.6h-2.5V832.4z M723.1,840.8h2.1v25.1h-2.1V840.8z"/>
	<path class="st11" d="M734.7,877.7v-2.4c1.3,0.6,2.5,1.1,3.5,1.4c1.1,0.3,2.3,0.4,3.8,0.4c6.3,0,9.5-3.4,9.5-10.1v-3.8h-0.1
		c-0.8,1-1.9,1.8-3.3,2.4c-1.4,0.6-2.8,1-4.4,1c-3.4,0-6-1.2-7.9-3.5c-1.9-2.3-2.9-5.5-2.9-9.6c0-4.2,1-7.4,3-9.8
		c2-2.4,4.8-3.6,8.4-3.6c1.7,0,3.2,0.4,4.4,1.1c1.2,0.7,2.2,1.5,2.9,2.3h0.1l0.3-2.8h1.7v26.2c0,2.8-0.4,5.1-1.3,6.8
		c-0.9,1.7-2.2,3-3.9,3.9s-3.9,1.3-6.5,1.3c-1.5,0-2.9-0.1-4.2-0.4C736.4,878.4,735.4,878.1,734.7,877.7z M751.5,861v-15
		c-0.7-1-1.7-1.9-3.1-2.7c-1.4-0.8-2.8-1.2-4.2-1.2c-2.8,0-5.1,1-6.7,3c-1.6,2-2.4,4.8-2.4,8.3c0,3.6,0.8,6.3,2.3,8.2
		c1.5,1.9,3.7,2.9,6.6,2.9c1.3,0,2.6-0.3,4-1C749.3,863,750.5,862.1,751.5,861z"/>
	<path class="st11" d="M765,840.8l0.4,4.1h0.1c1-1.5,2.3-2.6,3.7-3.5c1.4-0.8,3-1.2,4.7-1.2c2.7,0,4.7,0.8,6,2.3
		c1.4,1.6,2,3.8,2,6.8v16.5h-2.1v-16.3c0-2.5-0.5-4.4-1.4-5.6s-2.5-1.9-4.7-1.9c-1.5,0-3,0.5-4.4,1.4c-1.4,0.9-2.7,2.2-3.7,3.8v18.5
		h-2.1v-25.1H765z"/>
	<path class="st11" d="M811.5,830c4,0,7.1,0.8,9.4,2.5c2.2,1.6,3.4,4,3.4,7.2c0,3.7-1.4,6.5-4.1,8.3c-2.7,1.8-6.7,2.7-11.8,2.7
		c-1.1,0-2.5-0.1-4.1-0.3v15.5h-2.4V830H811.5z M821.8,839.7c0-2.7-1-4.6-2.9-5.8c-2-1.2-4.7-1.8-8.2-1.8h-6.4v16.1
		c1.8,0.2,3.2,0.3,4.1,0.3c4.7,0,8.1-0.8,10.3-2.3S821.8,842.6,821.8,839.7z"/>
	<path class="st11" d="M833.4,840.8l0.4,4.5h0.1c1-1.5,2.4-2.7,4.2-3.7c1.8-1,3.7-1.5,5.6-1.5h0.7v2.1h-0.7c-2,0-3.9,0.5-5.7,1.6
		s-3.2,2.5-4.1,4.2v17.8h-2.1v-25.1H833.4z"/>
	<path class="st11" d="M847.8,853.4c0-4,1-7.2,3.1-9.6s4.8-3.6,8.2-3.6c3.4,0,6.1,1.2,8.2,3.6c2,2.4,3,5.6,3,9.6
		c0,3.9-1,7.1-3.1,9.5c-2.1,2.4-4.8,3.6-8.1,3.6c-3.4,0-6.2-1.2-8.2-3.6C848.8,860.6,847.8,857.4,847.8,853.4z M868,853.4
		c0-3.5-0.8-6.2-2.4-8.2s-3.8-3-6.5-3c-2.8,0-4.9,1-6.6,3s-2.4,4.8-2.4,8.2c0,3.4,0.8,6.2,2.4,8.2c1.6,2,3.8,3,6.6,3
		c2.8,0,4.9-1,6.5-3C867.2,859.6,868,856.9,868,853.4z"/>
	<path class="st11" d="M870.4,878.6v-2c1.1,0.3,2.2,0.5,3.3,0.5c1.3,0,2.4-0.4,3.1-1.1c0.7-0.7,1.1-1.8,1.1-3v-32.1h2.1v32.6
		c0,1.8-0.6,3.1-1.8,4.1s-2.7,1.5-4.7,1.5C872.5,879,871.4,878.9,870.4,878.6z M877.8,832.4h2.5v2.6h-2.5V832.4z"/>
	<path class="st11" d="M887.8,853.1c0-2.6,0.5-4.9,1.4-6.8s2.2-3.5,3.8-4.5c1.6-1,3.4-1.6,5.4-1.6c2.9,0,5.3,1,7,2.9
		c1.8,1.9,2.6,5,2.6,9.1v0.9H890c0,4,0.9,6.9,2.6,8.7c1.7,1.9,4.2,2.8,7.3,2.8c2.7,0,5-0.5,7.1-1.4v2c-1.7,0.9-4,1.4-7.1,1.4
		c-3.9,0-6.9-1.2-9-3.5C888.8,860.7,887.8,857.4,887.8,853.1z M898.3,842.1c-2.2,0-4.1,0.8-5.6,2.5c-1.5,1.7-2.4,3.9-2.6,6.5h15.7
		c-0.1-3-0.7-5.2-2-6.8C902.5,842.9,900.7,842.1,898.3,842.1z"/>
	<path class="st11" d="M914.4,853.6c0-3.2,0.6-5.8,1.7-7.8c1.2-2,2.6-3.4,4.4-4.3c1.8-0.9,3.6-1.3,5.5-1.3c1.3,0,2.5,0.1,3.7,0.4
		s2.1,0.6,2.9,1v2.2c-0.9-0.5-2-0.9-3.2-1.2c-1.2-0.3-2.3-0.5-3.4-0.5c-1.6,0-3,0.4-4.4,1.1c-1.4,0.8-2.6,2-3.5,3.7
		c-0.9,1.7-1.3,3.9-1.3,6.6c0,3.3,0.9,6,2.6,8c1.8,2,4.1,3,7.1,3c1.9,0,4.1-0.5,6.6-1.5v2c-2,1-4.2,1.5-6.7,1.5
		c-2.2,0-4.2-0.5-6-1.4c-1.8-0.9-3.2-2.4-4.3-4.3S914.4,856.5,914.4,853.6z"/>
	<path class="st11" d="M941,859.9v-17.1h-5v-2h5v-6.7h2.1v6.7h7.7v2h-7.7v16.4c0,1.9,0.4,3.3,1.1,4.1s1.9,1.2,3.5,1.2
		c1.4,0,2.6-0.2,3.4-0.5v1.9c-1.1,0.4-2.4,0.6-3.8,0.6c-2,0-3.6-0.6-4.7-1.7C941.5,863.8,941,862.1,941,859.9z"/>
</g>
</svg>
